<?xml version="1.0" encoding="utf-8"?>
<!-- Generator: Adobe Illustrator 24.3.0, SVG Export Plug-In . SVG Version: 6.00 Build 0)  -->
<svg version="1.1" id="图层_1" xmlns="http://www.w3.org/2000/svg" xmlns:xlink="http://www.w3.org/1999/xlink" x="0px" y="0px"
	 viewBox="0 0 1024 1024" style="enable-background:new 0 0 1024 1024;" xml:space="preserve">
<style type="text/css">
	.st0{fill:#0DD667;}
</style>
<g>
	<path class="st0" d="M696.6,752.5V271.6c0-7.5,6.1-13.7,13.7-13.7H821c7.5,0,13.7,6.1,13.7,13.7v480.9c0,7.5-6.1,13.7-13.7,13.7
		H710.3C702.7,766.2,696.6,760,696.6,752.5z"/>
	<path class="st0" d="M527.5,752.5V382.1c0-7.5,6.1-13.7,13.7-13.7h110.7c7.5,0,13.7,6.1,13.7,13.7v370.4c0,7.5-6.1,13.7-13.7,13.7
		H541.2C533.6,766.2,527.5,760,527.5,752.5z"/>
	<path class="st0" d="M358.4,752.5V492.6c0-7.5,6.1-13.7,13.7-13.7h110.7c7.5,0,13.7,6.1,13.7,13.7v259.9c0,7.5-6.1,13.7-13.7,13.7
		H372.1C364.5,766.2,358.3,760,358.4,752.5z"/>
	<path class="st0" d="M189.3,752.4V603.1c0-7.5,6.1-13.7,13.7-13.7h110.7c7.5,0,13.7,6.1,13.7,13.7v149.4c0,7.5-6.1,13.7-13.7,13.7
		H203C195.4,766.2,189.2,760,189.3,752.4z"/>
</g>
</svg>
