<?xml version="1.0" encoding="utf-8"?>
<!-- Generator: Adobe Illustrator 24.3.0, SVG Export Plug-In . SVG Version: 6.00 Build 0)  -->
<svg version="1.1" id="图层_1" xmlns="http://www.w3.org/2000/svg" xmlns:xlink="http://www.w3.org/1999/xlink" x="0px" y="0px"
	 viewBox="0 0 1024 1024" style="enable-background:new 0 0 1024 1024;" xml:space="preserve">
<style type="text/css">
	.st0{fill:#0DD667;}
</style>
<g>
	<path class="st0" d="M762.2,295.2H261.8c-16.8,0-30.4,13.6-30.4,30.4v372.9c0,16.8,13.6,30.4,30.4,30.4h500.3
		c16.8,0,30.4-13.6,30.4-30.4V325.6C792.6,308.8,778.9,295.2,762.2,295.2z M708.6,546.8c0,11.1-9,20.1-20.1,20.1h-78.3v83.4
		c0,11.1-9,20.1-20.1,20.1H433.9c-11.1,0-20.1-9-20.1-20.1V567h-78.3c-11.1,0-20.1-9-20.1-20.1v-165c0-11.1,9-20.1,20.1-20.1h353
		c11.1,0,20.1,9,20.1,20.1V546.8z"/>
	<path class="st0" d="M399.8,410.6c-11,0-19.9,8.9-19.9,19.9v61c0,11,8.9,19.9,19.9,19.9c11,0,19.9-8.9,19.9-19.9v-61
		C419.7,419.5,410.8,410.6,399.8,410.6z"/>
	<path class="st0" d="M474.6,410.6c-11,0-19.9,8.9-19.9,19.9v61c0,11,8.9,19.9,19.9,19.9c11,0,19.9-8.9,19.9-19.9v-61
		C494.5,419.5,485.6,410.6,474.6,410.6z"/>
	<path class="st0" d="M549.4,410.6c-11,0-19.9,8.9-19.9,19.9v61c0,11,8.9,19.9,19.9,19.9c11,0,19.9-8.9,19.9-19.9v-61
		C569.3,419.5,560.4,410.6,549.4,410.6z"/>
	<path class="st0" d="M624.2,410.6L624.2,410.6c-11,0-19.9,8.9-19.9,19.9v61c0,11,8.9,19.9,19.9,19.9h0c11,0,19.9-8.9,19.9-19.9v-61
		C644.1,419.5,635.2,410.6,624.2,410.6z"/>
</g>
</svg>
