<?xml version="1.0" encoding="utf-8"?>
<!-- Generator: Adobe Illustrator 24.3.0, SVG Export Plug-In . SVG Version: 6.00 Build 0)  -->
<svg version="1.1" id="图层_1" xmlns="http://www.w3.org/2000/svg" xmlns:xlink="http://www.w3.org/1999/xlink" x="0px" y="0px"
	 viewBox="0 0 1000 1000" style="enable-background:new 0 0 1000 1000;" xml:space="preserve">
<style type="text/css">
	.st0{fill:#FFA854;}
</style>
<g>
	<path class="st0" d="M750.2,283.2H249.8c-16.8,0-30.4,13.6-30.4,30.4v372.9c0,16.8,13.6,30.4,30.4,30.4h500.3
		c16.8,0,30.4-13.6,30.4-30.4V313.6C780.6,296.8,766.9,283.2,750.2,283.2z M696.6,534.8c0,11.1-9,20.1-20.1,20.1h-78.3v83.4
		c0,11.1-9,20.1-20.1,20.1H421.9c-11.1,0-20.1-9-20.1-20.1V555h-78.3c-11.1,0-20.1-9-20.1-20.1v-165c0-11.1,9-20.1,20.1-20.1h353
		c11.1,0,20.1,9,20.1,20.1V534.8z"/>
	<path class="st0" d="M387.8,398.6c-11,0-19.9,8.9-19.9,19.9v61c0,11,8.9,19.9,19.9,19.9c11,0,19.9-8.9,19.9-19.9v-61
		C407.7,407.5,398.8,398.6,387.8,398.6z"/>
	<path class="st0" d="M462.6,398.6c-11,0-19.9,8.9-19.9,19.9v61c0,11,8.9,19.9,19.9,19.9c11,0,19.9-8.9,19.9-19.9v-61
		C482.5,407.5,473.6,398.6,462.6,398.6z"/>
	<path class="st0" d="M537.4,398.6c-11,0-19.9,8.9-19.9,19.9v61c0,11,8.9,19.9,19.9,19.9c11,0,19.9-8.9,19.9-19.9v-61
		C557.3,407.5,548.4,398.6,537.4,398.6z"/>
	<path class="st0" d="M612.2,398.6L612.2,398.6c-11,0-19.9,8.9-19.9,19.9v61c0,11,8.9,19.9,19.9,19.9h0c11,0,19.9-8.9,19.9-19.9v-61
		C632.1,407.5,623.2,398.6,612.2,398.6z"/>
</g>
</svg>
