<?xml version="1.0" encoding="utf-8"?>
<!-- Generator: Adobe Illustrator 24.3.0, SVG Export Plug-In . SVG Version: 6.00 Build 0)  -->
<svg version="1.1" id="图层_1" xmlns="http://www.w3.org/2000/svg" xmlns:xlink="http://www.w3.org/1999/xlink" x="0px" y="0px"
	 viewBox="0 0 1024 1024" style="enable-background:new 0 0 1024 1024;" xml:space="preserve">
<style type="text/css">
	.st0{opacity:0.1;fill:#FFFFFF;}
</style>
<g>
	<path class="st0" d="M547.7,376.2c-0.2-0.1-0.3-0.3-0.5-0.4c-7.5-6.7-17.9-10-31.2-10c-12.2,0-22.2,3.2-30,9.7
		c8.6-0.6,17.3-0.9,26.1-0.9C524,374.5,535.9,375.1,547.7,376.2z"/>
	<path class="st0" d="M526.8,457.3c6.7-6.4,12.1-11.7,16.2-16c4.2-4.3,7.4-8.3,9.8-12.1c2.4-3.7,3.9-7.5,4.6-11.2
		c0.7-3.7,1-8.3,1-13.5c0-0.6,0-1.3,0-1.9c-28.9-3.8-58.2-4.1-87.1-0.7c-0.1,1-0.2,2-0.3,3c-0.8,16.4-8.9,24.6-24.1,24.6
		c-14.2,0-22.1-6.2-23.8-18.5C365,426.1,310,456.5,264.5,502l70.7,70.7c43-43,98.9-68.4,158.9-72.6
		C501.4,485.9,512.2,471.6,526.8,457.3z"/>
	<path class="st0" d="M531.4,657.6c-3.3,3.3-7.1,6-11.4,7.9c-4.3,1.9-9,2.9-13.9,2.9s-9.6-1-13.9-2.9c-4.3-1.9-8.1-4.6-11.4-7.9
		c-0.7-0.7-1.4-1.5-2.1-2.3c-13.6,4.8-26.3,12.7-37.2,23.5l70.7,70.7l70.7-70.7c-13.4-13.5-29.7-22.3-47-26.5
		C534.4,654.2,533,655.9,531.4,657.6z"/>
	<path class="st0" d="M176.1,413.6l70.7,70.7c35.8-35.8,77.5-63.6,124-82.4c17.9-7.2,36.1-13,54.7-17.4
		c3.9-14.3,11.8-27.5,23.9-39.6c17.5-17.5,40.1-26.2,67.9-26.2c27.7,0,49.5,7.6,65.4,22.7c11.7,11.2,19.1,26.1,22.1,44.6
		c16.5,4.2,32.7,9.5,48.5,15.9c46.5,18.9,88.2,46.6,124,82.4l70.7-70.7C662.4,228.1,361.6,228.1,176.1,413.6z"/>
	<path class="st0" d="M532.8,528.1c-0.7,4.2-1,8.9-1,14.2c0,17.8-7.5,26.6-22.5,26.6c-5.8,0-10.4-0.4-13.7-1.2
		c-3.3-0.8-5.9-2.3-7.7-4.4c-1.8-2.1-3-4.9-3.5-8.3c-0.6-3.5-0.8-7.7-0.8-12.7c0-5.4,0.5-10.8,1.6-16.2
		c-48.3,5.8-95.1,27.2-132.2,64.3l70.7,70.7c13.3-13.3,29-23.2,46.2-29.3c0-4.8,1-9.4,2.9-13.6c1.9-4.3,4.6-8.1,7.9-11.4
		c3.3-3.3,7.1-6,11.4-7.9c4.3-1.9,9-2.9,13.9-2.9s9.6,1,13.9,2.9c4.3,1.9,8.1,4.6,11.4,7.9c3.3,3.3,6,7.1,7.9,11.4
		c1.4,3.1,2.3,6.4,2.7,9.9c21.9,5.4,42.1,16.6,58.4,33l70.7-70.7c-38.5-38.5-87.5-60.1-137.7-64.9
		C533.1,526.4,533,527.2,532.8,528.1z"/>
	<path class="st0" d="M596.7,444c-6.4,11.4-16.2,23.7-29.6,37.1c-8.1,7.8-14.4,14.4-19.2,19.8c-0.3,0.4-0.6,0.7-1,1.1
		c53.5,7.5,102.9,31.9,141.7,70.8l70.7-70.7c-44.2-44.2-97.2-74-153.4-89.7C605.4,423.6,602.2,434.2,596.7,444z"/>
</g>
</svg>
