<?xml version="1.0" encoding="utf-8"?>
<!-- Generator: Adobe Illustrator 24.3.0, SVG Export Plug-In . SVG Version: 6.00 Build 0)  -->
<svg version="1.1" id="图层_1" xmlns="http://www.w3.org/2000/svg" xmlns:xlink="http://www.w3.org/1999/xlink" x="0px" y="0px"
	 viewBox="0 0 1024 1024" style="enable-background:new 0 0 1024 1024;" xml:space="preserve">
<style type="text/css">
	.st0{fill:#0DD667;}
</style>
<g>
	<path class="st0" d="M847.9,413.6l-70.7,70.7c-35.8-35.8-77.5-63.5-124-82.4c-44.9-18.2-92.4-27.4-141.2-27.4s-96.2,9.2-141.2,27.4
		c-46.5,18.8-88.2,46.6-124,82.4l-70.7-70.7C361.6,228.1,662.4,228.1,847.9,413.6z"/>
	<path class="st0" d="M759.5,502l-70.7,70.7c-47.2-47.2-110-73.2-176.8-73.2s-129.6,26-176.8,73.2L264.5,502
		C401.2,365.3,622.8,365.3,759.5,502z"/>
	<path class="st0" d="M671.1,590.4l-70.7,70.7c-23.6-23.6-55-36.6-88.4-36.6s-64.8,13-88.4,36.6l-70.7-70.7
		C440.8,502.5,583.2,502.5,671.1,590.4z"/>
	<path class="st0" d="M582.7,678.8L512,749.5l-70.7-70.7C480.3,639.7,543.7,639.7,582.7,678.8z"/>
</g>
</svg>
