<?xml version="1.0" standalone="no"?><!DOCTYPE svg PUBLIC "-//W3C//DTD SVG 1.1//EN" "http://www.w3.org/Graphics/SVG/1.1/DTD/svg11.dtd"><svg t="1705281701302" class="icon" viewBox="0 0 1044 1024" version="1.1" xmlns="http://www.w3.org/2000/svg" p-id="13315" xmlns:xlink="http://www.w3.org/1999/xlink" width="32.625" height="32"><path d="M174.08 0h512l256 256v704c0 35.328-28.672 64-64 64H174.08c-35.328 0-64-28.672-64-64v-896C110.08 28.672 138.752 0 174.08 0z" fill="#EA9963" p-id="13316"></path><path d="M686.08 0l256 256h-192c-35.328 0-64-28.672-64-64V0z" fill="#FFD3BB" p-id="13317"></path><path d="M526.336 674.304c56.32 0 101.888-45.568 101.888-101.888V427.008c0-56.32-45.568-101.888-101.888-101.888s-101.888 45.568-101.888 101.888v145.408c0 56.32 45.568 101.888 101.888 101.888z m159.744-72.704h-29.184c-13.312 58.368-68.608 101.888-131.072 101.888s-117.76-43.52-131.072-101.888h-29.184c12.8 69.632 73.728 123.904 145.408 130.048v29.696H496.64c-8.192 0-14.336 6.656-14.336 14.336 0 8.192 6.656 14.336 14.336 14.336h58.368c8.192 0 14.336-6.656 14.336-14.336 0-8.192-6.656-14.336-14.336-14.336h-14.336V732.16c72.192-6.656 132.608-60.416 145.408-130.56z" fill="#FFFFFF" p-id="13318"></path></svg>