<?xml version="1.0" standalone="no"?><!DOCTYPE svg PUBLIC "-//W3C//DTD SVG 1.1//EN" "http://www.w3.org/Graphics/SVG/1.1/DTD/svg11.dtd"><svg t="1705281693190" class="icon" viewBox="0 0 1044 1024" version="1.1" xmlns="http://www.w3.org/2000/svg" p-id="13178" xmlns:xlink="http://www.w3.org/1999/xlink" width="32.625" height="32"><path d="M174.08 0h512l256 256v704c0 35.328-28.672 64-64 64H174.08c-35.328 0-64-28.672-64-64v-896C110.08 28.672 138.752 0 174.08 0z" fill="#007EFF" p-id="13179"></path><path d="M686.08 0l256 256h-192c-35.328 0-64-28.672-64-64V0z" fill="#A9C7FF" p-id="13180"></path><path d="M372.736 528.384c9.216-3.584 14.336-13.824 10.752-23.04-3.584-9.216-13.824-14.336-23.04-10.752h-0.512c-59.904 23.552-89.088 91.136-66.048 151.04 3.584 9.216 14.336 13.824 23.552 10.24 9.216-3.584 13.824-14.336 10.24-23.552-16.896-40.96 3.584-87.552 45.056-103.936zM630.272 433.152l85.504-45.056c11.776-6.144 16.384-20.48 10.24-32.256-4.608-8.704-13.824-13.824-23.552-12.8-3.072 0.512-6.144 1.024-9.216 2.56l-98.304 51.712c-7.68 4.096-12.8 12.288-12.8 21.504v158.72c-16.384-10.24-35.84-15.872-55.296-15.872-56.832 0-103.424 46.08-103.424 103.424 0 56.832 46.08 103.424 103.424 103.424 56.832 0 103.424-46.08 103.424-103.424V433.152zM427.008 553.472c-3.584-9.216-13.824-13.824-23.552-10.24-19.456 7.68-35.328 23.04-44.032 42.496-8.704 19.456-8.704 41.472-1.024 60.928 3.584 9.216 14.336 13.312 23.552 9.728 9.216-3.584 13.312-13.824 10.24-23.04-4.096-10.752-4.096-22.528 0.512-33.28 4.608-10.752 13.312-18.944 24.064-23.04 9.728-3.584 13.824-14.336 10.24-23.552zM693.76 688.64c-3.072-9.216-13.312-14.336-23.04-11.264-9.216 3.072-14.336 13.312-11.264 23.04 7.68 22.528-4.096 47.616-26.624 55.296-9.216 3.584-14.336 13.824-10.752 23.04 3.584 9.216 13.312 13.824 22.528 10.752 41.472-13.824 63.488-59.392 49.152-100.864zM760.32 695.808c-3.072-9.216-13.312-14.336-23.04-11.264-4.608 1.536-8.192 5.12-10.24 9.216-2.048 4.096-2.56 9.216-1.024 13.824 7.168 19.968 5.632 42.496-3.584 61.44-9.216 19.456-26.112 33.792-46.08 40.96-9.216 3.072-14.336 13.312-11.264 23.04 3.072 9.216 13.312 14.336 23.04 11.264 29.184-10.24 53.248-31.232 66.56-59.392 14.336-28.16 15.872-59.904 5.632-89.088z" fill="#FFFFFF" p-id="13181"></path></svg>