<?xml version="1.0" standalone="no"?><!DOCTYPE svg PUBLIC "-//W3C//DTD SVG 1.1//EN" "http://www.w3.org/Graphics/SVG/1.1/DTD/svg11.dtd"><svg t="1695094473096" class="icon" viewBox="0 0 1024 1024" version="1.1" xmlns="http://www.w3.org/2000/svg" p-id="8699" width="32" height="32" xmlns:xlink="http://www.w3.org/1999/xlink"><path d="M512 512.5m-373 0a373 373 0 1 0 746 0 373 373 0 1 0-746 0Z" fill="#2E8BF0" p-id="8700"></path><path d="M363.5 561.7v46.8h-46.7v23h46.7v46.7h23v-46.7h46.7v-23h-46.7v-46.8z" fill="#FFFFFF" p-id="8701"></path><path d="M660.5 501.1v-17.9c0-31.1-25.3-56.5-56.5-56.5h-47c-18.5 0-33.5-15-33.5-33.5V374c39.6-5.6 70.1-39.7 70.1-80.8 0-45-36.6-81.6-81.6-81.6s-81.6 36.6-81.6 81.6c0 41.1 30.5 75.2 70.1 80.8v19.2c0 18.5-15 33.5-33.5 33.5h-47c-31.1 0-56.5 25.3-56.5 56.5v17.9c-60.5 5.8-108 56.9-108 118.9 0 65.9 53.6 119.5 119.5 119.5S494.5 685.8 494.5 620c0-62-47.5-113.1-108-118.9v-17.9c0-18.5 15-33.5 33.5-33.5h47c18.3 0 34.7-8.8 45-22.4 10.3 13.6 26.6 22.4 45 22.4h47c18.5 0 33.5 15 33.5 33.5v17.9c-60.5 5.8-108 56.9-108 118.9 0 65.9 53.6 119.5 119.5 119.5S768.5 685.8 768.5 620c0-62-47.5-113.1-108-118.9zM471.5 620c0 53.2-43.3 96.5-96.5 96.5s-96.5-43.3-96.5-96.5 43.3-96.5 96.5-96.5 96.5 43.3 96.5 96.5z m-18.1-326.7c0-32.3 26.3-58.6 58.6-58.6s58.6 26.3 58.6 58.6-26.3 58.6-58.6 58.6-58.6-26.3-58.6-58.6zM649 716.4c-53.2 0-96.5-43.3-96.5-96.5s43.3-96.5 96.5-96.5 96.5 43.3 96.5 96.5-43.3 96.5-96.5 96.5z" fill="#FFFFFF" p-id="8702"></path><path d="M660.5 561.7h-23v46.8h-46.7v23h46.7v46.7h23v-46.7h46.7v-23h-46.7z" fill="#FFFFFF" p-id="8703"></path></svg>