<?xml version="1.0" standalone="no"?><!DOCTYPE svg PUBLIC "-//W3C//DTD SVG 1.1//EN" "http://www.w3.org/Graphics/SVG/1.1/DTD/svg11.dtd"><svg t="1695094658060" class="icon" viewBox="0 0 1024 1024" version="1.1" xmlns="http://www.w3.org/2000/svg" p-id="8956" xmlns:xlink="http://www.w3.org/1999/xlink" width="32" height="32"><path d="M512 512m-373 0a373 373 0 1 0 746 0 373 373 0 1 0-746 0Z" fill="#2E8BF0" p-id="8957"></path><path d="M660.5 603.1v-15.2c0-31.1-25.3-56.5-56.5-56.5h-47c-18.5 0-33.5-15-33.5-33.5v-31.2l2.1-0.3c2.3-0.3 4.5 0.7 5.6 2.6l1.9 3.3c2.8 4.8 7.3 8.3 12.7 9.8 5.4 1.4 11 0.7 15.9-2.1l19.8-11.4c4.8-2.8 8.3-7.3 9.8-12.7s0.7-11-2.1-15.9l-1.9-3.3c-1.1-1.9-0.9-4.3 0.5-6.1 5.5-7 10-14.7 13.3-22.9 0.9-2.1 2.8-3.4 5-3.4h4.6c11.5 0 20.9-9.4 20.9-20.9v-22.8c0-11.5-9.4-20.9-20.9-20.9h-4.2c-2.2 0-4.2-1.4-5-3.5-3.4-8.6-8-16.7-13.8-24-1.4-1.8-1.6-4.2-0.5-6.1l2.3-4c5.8-10 2.3-22.8-7.7-28.6L562 262.1c-10-5.8-22.8-2.3-28.6 7.7l-2.2 3.9c-1.1 1.9-3.3 2.9-5.6 2.6-9-1.3-18.3-1.3-27.3 0-2.3 0.3-4.5-0.7-5.6-2.6l-2.5-4.3c-5.8-10-18.6-13.4-28.6-7.7l-19.6 11c-4.8 2.8-8.3 7.3-9.8 12.7-1.4 5.4-0.7 11 2.1 15.9l2.5 4.3c1.1 1.9 0.9 4.3-0.5 6.1-5.8 7.4-10.5 15.5-13.9 24.2-0.8 2.1-2.8 3.5-5 3.5h-4.2c-11.5 0-20.9 9.4-20.9 20.9v22.8c0 11.5 9.4 20.9 20.9 20.9h4.6c2.2 0 4.2 1.3 5 3.4 3.4 8.3 7.9 16.1 13.5 23.1 1.4 1.8 1.6 4.2 0.5 6.1l-2.1 3.7c-2.8 4.8-3.5 10.5-2.1 15.9s4.9 9.9 9.8 12.7l19.8 11.4c3.2 1.9 6.8 2.8 10.4 2.8 1.8 0 3.7-0.2 5.5-0.7 5.4-1.4 9.9-4.9 12.7-9.8l2.2-3.8c1.1-1.9 3.3-2.9 5.6-2.6 0.6 0.1 1.3 0.2 1.9 0.2v31.2c0 18.5-15 33.5-33.5 33.5h-47c-31.1 0-56.5 25.3-56.5 56.5v15.2c-39.6 5.6-70.1 39.7-70.1 80.8 0 45 36.6 81.6 81.6 81.6s81.6-36.6 81.6-81.6c0-41.1-30.5-75.2-70.1-80.8v-15.2c0-18.5 15-33.5 33.5-33.5h47c18.3 0 34.7-8.8 45-22.4 10.3 13.6 26.6 22.4 45 22.4h47c18.5 0 33.5 15 33.5 33.5v15.2c-39.6 5.6-70.1 39.7-70.1 80.8 0 45 36.6 81.6 81.6 81.6s81.6-36.6 81.6-81.6c0-40.8-30.5-74.9-70.1-80.5z m-226.9 80.8c0 32.3-26.3 58.6-58.6 58.6s-58.6-26.3-58.6-58.6 26.3-58.6 58.6-58.6 58.6 26.3 58.6 58.6z m39.5-226.3l-1.1 2-16.2-9.4 1.1-1.9c5.8-10.1 4.9-22.6-2.4-31.9-4.2-5.4-7.7-11.3-10.3-17.6-4.4-10.8-14.7-17.7-26.3-17.7h-2.6v-18.7h2.1c11.7 0 22.1-7.1 26.4-18 2.6-6.6 6.2-12.8 10.6-18.4 7.3-9.2 8.2-21.7 2.3-31.8l-1.5-2.5 16.2-9.4 1.5 2.5c5.8 10.1 17.1 15.5 28.7 13.9 6.9-1 14-1 20.8 0 11.6 1.7 22.9-3.8 28.7-13.9l1.2-2.1 16.2 9.4-1.3 2.2c-5.8 10.1-4.9 22.6 2.3 31.8 4.4 5.6 7.9 11.7 10.5 18.3 4.3 11 14.7 18.1 26.4 18.1h2.1v18.7h-2.6c-11.6 0-21.9 7-26.3 17.7-2.6 6.2-6 12.1-10.2 17.5-7.3 9.3-8.2 21.7-2.4 31.8l0.9 1.6-16.2 9.4-0.9-1.5c-5.8-10.1-17.1-15.5-28.7-13.9-6.8 1-13.8 1-20.6 0-11.3-1.7-22.6 3.7-28.4 13.8zM649 742.5c-32.3 0-58.6-26.3-58.6-58.6s26.3-58.6 58.6-58.6 58.6 26.3 58.6 58.6-26.3 58.6-58.6 58.6z" fill="#FFFFFF" p-id="8958"></path><path d="M559.4 370.9c0-26.1-21.2-47.4-47.4-47.4s-47.4 21.2-47.4 47.4 21.2 47.4 47.4 47.4 47.4-21.3 47.4-47.4z m-71.8 0c0-13.4 10.9-24.4 24.4-24.4 13.4 0 24.4 10.9 24.4 24.4s-10.9 24.4-24.4 24.4c-13.4 0-24.4-11-24.4-24.4z" fill="#FFFFFF" p-id="8959"></path></svg>